<svg width="48" height="48" viewBox="0 0 48 48" fill="none" xmlns="http://www.w3.org/2000/svg">
<rect width="48" height="48" rx="16" fill="#F8F8FA"/>
<path d="M27.8507 16.4916C27.754 16.3946 27.639 16.3176 27.5125 16.2651C27.3859 16.2126 27.2502 16.1855 27.1132 16.1855C26.9762 16.1855 26.8406 16.2126 26.714 16.2651C26.5874 16.3176 26.4725 16.3946 26.3757 16.4916L19.4507 23.4166C19.3735 23.4937 19.3122 23.5852 19.2704 23.6861C19.2286 23.7869 19.207 23.8949 19.207 24.0041C19.207 24.1132 19.2286 24.2213 19.2704 24.3221C19.3122 24.4229 19.3735 24.5145 19.4507 24.5916L26.3757 31.5166C26.7841 31.9249 27.4424 31.9249 27.8507 31.5166C28.2591 31.1082 28.2591 30.4499 27.8507 30.0416L21.8174 23.9999L27.8591 17.9582C28.2591 17.5582 28.2591 16.8916 27.8507 16.4916Z" fill="#18172B" stroke="#18172B" stroke-width="0.4"/>
</svg>
